<mxfile host="app.diagrams.net" modified="2024-02-07T18:17:10.730Z" agent="Mozilla/5.0 (Macintosh; Intel Mac OS X 10_15_7) AppleWebKit/605.1.15 (KHTML, like Gecko) Version/15.5 Safari/605.1.15" etag="scQ1oh8ajo7BDpNG8-bo" version="23.1.1" type="device">
  <diagram name="Page-1" id="lqRTw8LY39b_y0JNQHwk">
    <mxGraphModel dx="984" dy="644" grid="1" gridSize="10" guides="1" tooltips="1" connect="1" arrows="1" fold="1" page="1" pageScale="1" pageWidth="413" pageHeight="583" background="#D9F3F8" math="0" shadow="0">
      <root>
        <mxCell id="0" />
        <mxCell id="1" parent="0" />
        <mxCell id="dEYHJVlhOxJ4xXhAzUCa-1" value="" style="shape=umlLifeline;perimeter=lifelinePerimeter;whiteSpace=wrap;html=1;container=1;dropTarget=0;collapsible=0;recursiveResize=0;outlineConnect=0;portConstraint=eastwest;newEdgeStyle={&quot;curved&quot;:0,&quot;rounded&quot;:0};participant=umlActor;fillColor=none;size=43;" parent="1" vertex="1">
          <mxGeometry x="250.5" y="77" width="20" height="343" as="geometry" />
        </mxCell>
        <mxCell id="dEYHJVlhOxJ4xXhAzUCa-3" value="" style="html=1;points=[[0,0,0,0,5],[0,1,0,0,-5],[1,0,0,0,5],[1,1,0,0,-5]];perimeter=orthogonalPerimeter;outlineConnect=0;targetShapes=umlLifeline;portConstraint=eastwest;newEdgeStyle={&quot;curved&quot;:0,&quot;rounded&quot;:0};fillColor=#080606;strokeColor=#000000;" parent="dEYHJVlhOxJ4xXhAzUCa-1" vertex="1">
          <mxGeometry x="5" y="73" width="10" height="247" as="geometry" />
        </mxCell>
        <mxCell id="dEYHJVlhOxJ4xXhAzUCa-2" value="User&lt;br&gt;&lt;span style=&quot;font-weight: normal;&quot;&gt;(Actor)&lt;/span&gt;" style="text;align=center;fontStyle=1;verticalAlign=middle;spacingLeft=3;spacingRight=3;strokeColor=none;rotatable=0;points=[[0,0.5],[1,0.5]];portConstraint=eastwest;html=1;fontFamily=Poppins;fontSource=https%3A%2F%2Ffonts.googleapis.com%2Fcss%3Ffamily%3DPoppins;" parent="1" vertex="1">
          <mxGeometry x="220.5" y="40" width="80" height="26" as="geometry" />
        </mxCell>
        <mxCell id="dEYHJVlhOxJ4xXhAzUCa-4" value="" style="html=1;verticalAlign=bottom;endArrow=block;curved=0;rounded=0;" parent="1" edge="1">
          <mxGeometry x="-0.0008" relative="1" as="geometry">
            <mxPoint x="265.5" y="189.5" as="sourcePoint" />
            <mxPoint x="505.5" y="189.5" as="targetPoint" />
            <mxPoint as="offset" />
          </mxGeometry>
        </mxCell>
        <mxCell id="dEYHJVlhOxJ4xXhAzUCa-8" value="login&lt;br&gt;(email_id, password)" style="edgeLabel;html=1;align=center;verticalAlign=middle;resizable=0;points=[];fontFamily=Poppins;fontSource=https%3A%2F%2Ffonts.googleapis.com%2Fcss%3Ffamily%3DPoppins;labelBackgroundColor=#D9F3F8;" parent="dEYHJVlhOxJ4xXhAzUCa-4" vertex="1" connectable="0">
          <mxGeometry x="-0.0366" y="-2" relative="1" as="geometry">
            <mxPoint x="-1" y="-19" as="offset" />
          </mxGeometry>
        </mxCell>
        <mxCell id="dEYHJVlhOxJ4xXhAzUCa-6" value="&lt;font data-font-src=&quot;https://fonts.googleapis.com/css?family=Poppins&quot; face=&quot;Poppins&quot;&gt;alt&lt;/font&gt;" style="shape=umlFrame;whiteSpace=wrap;html=1;pointerEvents=0;" parent="1" vertex="1">
          <mxGeometry x="70.5" y="219" width="500" height="141" as="geometry" />
        </mxCell>
        <mxCell id="dEYHJVlhOxJ4xXhAzUCa-9" value="" style="endArrow=none;dashed=1;html=1;rounded=0;entryX=1;entryY=0.406;entryDx=0;entryDy=0;entryPerimeter=0;exitX=-0.001;exitY=0.519;exitDx=0;exitDy=0;exitPerimeter=0;dashPattern=12 12;" parent="1" source="dEYHJVlhOxJ4xXhAzUCa-6" edge="1">
          <mxGeometry width="50" height="50" relative="1" as="geometry">
            <mxPoint x="110.5" y="291.9100000000001" as="sourcePoint" />
            <mxPoint x="570.5" y="290.0200000000001" as="targetPoint" />
          </mxGeometry>
        </mxCell>
        <mxCell id="dEYHJVlhOxJ4xXhAzUCa-10" value="&lt;font data-font-src=&quot;https://fonts.googleapis.com/css?family=Poppins&quot; face=&quot;Poppins&quot;&gt;Authentication &lt;br&gt;DB&lt;/font&gt;" style="shape=umlLifeline;perimeter=lifelinePerimeter;whiteSpace=wrap;html=1;container=1;dropTarget=0;collapsible=0;recursiveResize=0;outlineConnect=0;portConstraint=eastwest;newEdgeStyle={&quot;curved&quot;:0,&quot;rounded&quot;:0};" parent="1" vertex="1">
          <mxGeometry x="460.5" y="70" width="100" height="350" as="geometry" />
        </mxCell>
        <mxCell id="dEYHJVlhOxJ4xXhAzUCa-11" value="" style="html=1;points=[[0,0,0,0,5],[0,1,0,0,-5],[1,0,0,0,5],[1,1,0,0,-5]];perimeter=orthogonalPerimeter;outlineConnect=0;targetShapes=umlLifeline;portConstraint=eastwest;newEdgeStyle={&quot;curved&quot;:0,&quot;rounded&quot;:0};fillColor=#080606;strokeColor=#000000;" parent="dEYHJVlhOxJ4xXhAzUCa-10" vertex="1">
          <mxGeometry x="45" y="90" width="10" height="210" as="geometry" />
        </mxCell>
        <mxCell id="dEYHJVlhOxJ4xXhAzUCa-12" value="" style="html=1;verticalAlign=bottom;endArrow=open;dashed=1;endSize=8;curved=0;rounded=0;" parent="1" edge="1">
          <mxGeometry relative="1" as="geometry">
            <mxPoint x="510.0000000000001" y="269" as="sourcePoint" />
            <mxPoint x="265.5" y="269" as="targetPoint" />
          </mxGeometry>
        </mxCell>
        <mxCell id="dEYHJVlhOxJ4xXhAzUCa-13" value="login_page&amp;nbsp;&lt;br&gt;(according to user category)" style="edgeLabel;html=1;align=center;verticalAlign=middle;resizable=0;points=[];fontFamily=Poppins;fontSource=https%3A%2F%2Ffonts.googleapis.com%2Fcss%3Ffamily%3DPoppins;labelBackgroundColor=#D9F3F8;" parent="dEYHJVlhOxJ4xXhAzUCa-12" vertex="1" connectable="0">
          <mxGeometry x="0.0342" y="-1" relative="1" as="geometry">
            <mxPoint x="-3" y="-16" as="offset" />
          </mxGeometry>
        </mxCell>
        <mxCell id="dEYHJVlhOxJ4xXhAzUCa-14" value="" style="html=1;verticalAlign=bottom;endArrow=open;dashed=1;endSize=8;curved=0;rounded=0;" parent="1" edge="1">
          <mxGeometry relative="1" as="geometry">
            <mxPoint x="505.5" y="322.66" as="sourcePoint" />
            <mxPoint x="265.5" y="322.66" as="targetPoint" />
          </mxGeometry>
        </mxCell>
        <mxCell id="dEYHJVlhOxJ4xXhAzUCa-15" value="error page" style="edgeLabel;html=1;align=center;verticalAlign=middle;resizable=0;points=[];fontFamily=Poppins;fontSource=https%3A%2F%2Ffonts.googleapis.com%2Fcss%3Ffamily%3DPoppins;labelBackgroundColor=#D9F3F8;" parent="dEYHJVlhOxJ4xXhAzUCa-14" vertex="1" connectable="0">
          <mxGeometry x="0.0342" y="-1" relative="1" as="geometry">
            <mxPoint y="-8" as="offset" />
          </mxGeometry>
        </mxCell>
        <mxCell id="dEYHJVlhOxJ4xXhAzUCa-17" value="[Authentication OK]" style="text;align=center;fontStyle=1;verticalAlign=middle;spacingLeft=3;spacingRight=3;strokeColor=none;rotatable=0;points=[[0,0.5],[1,0.5]];portConstraint=eastwest;html=1;fontFamily=Poppins;fontSource=https%3A%2F%2Ffonts.googleapis.com%2Fcss%3Ffamily%3DPoppins;" parent="1" vertex="1">
          <mxGeometry x="108.5" y="256" width="80" height="26" as="geometry" />
        </mxCell>
        <mxCell id="dEYHJVlhOxJ4xXhAzUCa-18" value="[AuthenticationFailed]" style="text;align=center;fontStyle=1;verticalAlign=middle;spacingLeft=3;spacingRight=3;strokeColor=none;rotatable=0;points=[[0,0.5],[1,0.5]];portConstraint=eastwest;html=1;fontFamily=Poppins;fontSource=https%3A%2F%2Ffonts.googleapis.com%2Fcss%3Ffamily%3DPoppins;" parent="1" vertex="1">
          <mxGeometry x="123.5" y="310" width="80" height="26" as="geometry" />
        </mxCell>
      </root>
    </mxGraphModel>
  </diagram>
</mxfile>
